<svg xmlns="http://www.w3.org/2000/svg" viewBox="0 0 963.45 321.9"><defs><style>.cls-1{fill:#04ad8c;}.cls-2{fill:#b2cec8;}.cls-3{fill:#878787;}.cls-4{fill:#353535;stroke:#000;}.cls-4,.cls-5{stroke-miterlimit:10;stroke-width:5px;}.cls-5{stroke:#2b2b2b;}.cls-6{fill:#3c6630;}</style></defs><g id="Layer_2" data-name="Layer 2"><g id="Layer_1-2" data-name="Layer 1"><rect class="cls-1" width="963.45" height="321.9" rx="61.89"/><rect class="cls-2" x="27.38" y="35.17" width="155.15" height="234.25" rx="12"/><rect class="cls-2" x="824.28" y="35.25" width="106.13" height="234.25" rx="29.11"/><path class="cls-3" d="M104.17,236V174.23H76.3V236H52.75V74.5H76.3v57.13h27.87V74.5h23.55V236Z"/><path class="cls-3" d="M138,213c0-14,5.71-25.9,12.47-25.9s12.48,11.86,12.48,25.9-5.71,25.9-12.48,25.9S138,227,138,213Z"/><path class="cls-4" d="M213.89,238.24V64h18.65l47,116.16V64h18.3V238.24H279.16L232,121.6V238.24Z"/><path class="cls-4" d="M347.81,238.24q-7,0-11.95-10.4t-4.95-24.69V149.43h50.7V134.91h-50.7v-37h51.63q7,0,11.95,10.41T399.44,133V238.24Zm4.78-37h29V181.86H348.74v19.36Z"/><path class="cls-4" d="M429.16,238.24v-38l40.68-65.34H429.16v-37H497.7v38L457,201.22H497.7v37Z"/><path class="cls-5" d="M531,238.24V97.88h81.35q7,0,12,10.41T629.29,133V238.24H611.58V134.91H589.2V238.24h-18V134.91H548.87V238.24Z"/><path class="cls-5" d="M682.33,238.24q-7,0-12-10.4t-5-24.69V97.88h17.83V201.22h32.87V97.88H734V203.15q0,14.28-5,24.69t-12,10.4Z"/><path class="cls-5" d="M783.73,238.24q-6.88,0-11.89-10.4t-5-24.69V51.66h17.95V201.22h13.64v37Z"/><path class="cls-3" d="M903.21,203.53H883.07v9.9h20.14v8.37H850.52v-8.37h18.64v-9.9H850.52v-8.37h52.69Z"/><path class="cls-3" d="M903.21,179.3h-3.63c2.69,1.12,4.58,3.56,4.58,6,0,3-3.87,6.87-12.56,6.87-9.48,0-12.17-3.89-12.17-6.87a6.54,6.54,0,0,1,4.19-6h-4c-2.69,0-4.74,1.28-4.74,3.73,0,1.86,1.42,4,3.71,5.55l-8.77,2.52c-4.11-2.69-5.76-6.42-5.76-9.44,0-5,3.31-9.82,16-9.82h23.07Zm-10.34,0h-2.14a3.16,3.16,0,0,0-2.05,2.94c0,1.24.79,2.61,3.16,2.61s3.08-1.37,3.08-2.61A3.16,3.16,0,0,0,892.87,179.3Z"/><path class="cls-3" d="M898.32,169.4l-9.56-3c2.37-1.58,4.82-5,4.82-7.21,0-1.53-.71-2-1.66-2-3.64,0,1,11.35-14.94,11.35-6.87,0-12.87-3.15-12.87-8.95,0-3.35,2-6.33,4.89-8.65l9.25,2.73c-2,1.24-4,3.56-4,5.88a1.68,1.68,0,0,0,1.66,1.87c3.16,0-.79-11.35,15.09-11.35,7.58,0,13.11,3.56,13.11,9.48C904.16,163.27,901.71,167.25,898.32,169.4Z"/><path class="cls-3" d="M898.32,149.11l-9.56-3c2.37-1.57,4.82-5,4.82-7.21,0-1.53-.71-2-1.66-2-3.64,0,1,11.35-14.94,11.35-6.87,0-12.87-3.15-12.87-8.95,0-3.36,2-6.34,4.89-8.66l9.25,2.73c-2,1.25-4,3.57-4,5.89a1.68,1.68,0,0,0,1.66,1.86c3.16,0-.79-11.35,15.09-11.35,7.58,0,13.11,3.56,13.11,9.49C904.16,143,901.71,147,898.32,149.11Z"/><path class="cls-3" d="M903.21,115.55h-3.63c2.69,1.12,4.58,3.57,4.58,6,0,3-3.87,6.88-12.56,6.88-9.48,0-12.17-3.9-12.17-6.88a6.55,6.55,0,0,1,4.19-6h-4c-2.69,0-4.74,1.29-4.74,3.73,0,1.87,1.42,4,3.71,5.55l-8.77,2.53c-4.11-2.69-5.76-6.42-5.76-9.45,0-5,3.31-9.81,16-9.81h23.07Zm-10.34,0h-2.14a3.17,3.17,0,0,0-2.05,2.94c0,1.25.79,2.61,3.16,2.61s3.08-1.36,3.08-2.61A3.17,3.17,0,0,0,892.87,115.55Z"/><path class="cls-3" d="M903.21,90.41H882.12c-4,0-5.45,1.12-5.45,2.9s1.66,2.57,3,3.19h23.54V104H865.05V96.5h4.35c-2.53-1.16-5.29-3.36-5.29-6.88,0-4.64,5.37-6.67,12-6.67h27.09Z"/><path class="cls-6" d="M522.24,267.17h6.34v20.51c0,3.94-.42,6.74-1.26,8.42a4.45,4.45,0,0,1-4.32,2.51h-3.59q-2.35,0-3.17-3.49-1,3.5-3.31,3.49h-3a4.6,4.6,0,0,1-4.12-2.25c-.94-1.57-1.4-4.47-1.4-8.68V272.25l-1.6-5.08h7.66v20a7.83,7.83,0,0,0,.28,2.52,1,1,0,0,0,1,.73h.22a1,1,0,0,0,1-.73,8.13,8.13,0,0,0,.28-2.52v-20h6.34v20a12.9,12.9,0,0,0,.11,1.87,2.42,2.42,0,0,0,.38,1,.87.87,0,0,0,.74.35H521a1,1,0,0,0,1-.73,7.83,7.83,0,0,0,.28-2.52Z"/><path class="cls-6" d="M551.9,286.32l-7.63-.06v2.19a7.8,7.8,0,0,0,.28,2.51,1,1,0,0,0,1,.74h.59a.91.91,0,0,0,.9-.66,6.59,6.59,0,0,0,.25-2.18h6.18a27.82,27.82,0,0,1-.37,5.58,6.33,6.33,0,0,1-1.38,3.13,3.29,3.29,0,0,1-2.55,1h-5.58a4.62,4.62,0,0,1-4-2.07q-1.6-2.37-1.6-8.86V272.25l-1.6-5.08H549a3.6,3.6,0,0,1,3.52,2.37q1.05,2.35,1.05,7.8v5.2a8.32,8.32,0,0,1-.36,2.89A1.32,1.32,0,0,1,551.9,286.32ZM544.27,278v3.84h3V278a7.83,7.83,0,0,0-.28-2.52,1,1,0,0,0-1-.73h-.45a1,1,0,0,0-1,.73A7.83,7.83,0,0,0,544.27,278Z"/><path class="cls-6" d="M573.9,267.17c1.48,0,2.62.89,3.44,2.66a19.46,19.46,0,0,1,1.22,7.8v10.52a21.06,21.06,0,0,1-1.11,7.86,3.8,3.8,0,0,1-3.69,2.6H568.2a4.18,4.18,0,0,1-4.05-2.54c-.81-1.7-1.22-4.49-1.22-8.39v-28l-1.6-5.08h7.94v17.13C570.67,268.69,572.22,267.17,573.9,267.17Zm-1.66,21.28V279.4c0-2.16-.43-3.25-1.29-3.25-.44,0-.84.35-1.17,1a6.08,6.08,0,0,0-.51,2.69v8.57a8.17,8.17,0,0,0,.27,2.51,1,1,0,0,0,1,.74H571a1,1,0,0,0,1-.74A7.8,7.8,0,0,0,572.24,288.45Z"/><path class="cls-6" d="M617.11,287.44a5.42,5.42,0,0,0,.27,2.25c.18.27.62.41,1.33.41v8.51h-3.84a3.11,3.11,0,0,1-2.08-.59,4.62,4.62,0,0,1-1.09-2.37q-.93,3-3.31,3H607a4.61,4.61,0,0,1-4.13-2.25c-.93-1.57-1.4-4.47-1.4-8.68V277.63q0-10.45,4.66-10.46a4,4,0,0,1,2.93,1.21,6.64,6.64,0,0,1,1.67,3.11V259.67l-1.6-5.08h7.94Zm-6.34-.3v-7.85a8.62,8.62,0,0,0-.26-2.52,1,1,0,0,0-1-.73h-.48a1,1,0,0,0-1,.73,8.28,8.28,0,0,0-.26,2.52v7.85a11.61,11.61,0,0,0,.11,1.87,2.29,2.29,0,0,0,.38,1,.85.85,0,0,0,.74.35h.48a1,1,0,0,0,1-.73A8.62,8.62,0,0,0,610.77,287.14Z"/><path class="cls-6" d="M642,286.32l-7.63-.06v2.19a7.8,7.8,0,0,0,.28,2.51,1,1,0,0,0,1,.74h.59a.91.91,0,0,0,.9-.66,6.59,6.59,0,0,0,.25-2.18h6.18a27.82,27.82,0,0,1-.37,5.58,6.42,6.42,0,0,1-1.37,3.13,3.32,3.32,0,0,1-2.56,1H633.7a4.62,4.62,0,0,1-4-2.07q-1.6-2.37-1.6-8.86V272.25l-1.6-5.08h12.68a3.6,3.6,0,0,1,3.52,2.37q1.07,2.35,1.06,7.8v5.2a8.27,8.27,0,0,1-.37,2.89A1.32,1.32,0,0,1,642,286.32ZM634.4,278v3.84h3V278a7.83,7.83,0,0,0-.28-2.52,1,1,0,0,0-1-.73h-.45a1,1,0,0,0-1,.73A7.83,7.83,0,0,0,634.4,278Z"/><path class="cls-6" d="M662.12,267.17h6.35v31.44h-7.64q-1.46,0-2.52-2.13l-5.25-13.06V271.6l-1.6-4.43h7.94V283l2.72,7Z"/><path class="cls-6" d="M688.73,267.17q4.74,0,4.74,10.93v10.17c0,3.54-.39,6.15-1.15,7.83a3.79,3.79,0,0,1-3.59,2.51h-5.28a4.62,4.62,0,0,1-4-2.07q-1.6-2.37-1.6-8.86V272.25l-1.6-5.08Zm-1.6,21.28V278a8.13,8.13,0,0,0-.28-2.52,1,1,0,0,0-1-.73h-.47a1,1,0,0,0-1,.73,8.2,8.2,0,0,0-.27,2.52v10.46a8.17,8.17,0,0,0,.27,2.51,1,1,0,0,0,1,.74h.47a1,1,0,0,0,1-.74A8.1,8.1,0,0,0,687.13,288.45Z"/><path class="cls-6" d="M710.7,290.1h.75v8.51h-3.36a4.2,4.2,0,0,1-4.06-2.54c-.81-1.7-1.22-4.49-1.22-8.39v-28l-1.6-5.08h7.94v33a4.56,4.56,0,0,0,.3,2.07C709.64,289.94,710.06,290.1,710.7,290.1Z"/><path class="cls-6" d="M731.71,267.17q4.75,0,4.75,10.93v10.17c0,3.54-.39,6.15-1.15,7.83a3.79,3.79,0,0,1-3.6,2.51h-5.27a4.62,4.62,0,0,1-4-2.07q-1.6-2.37-1.6-8.86V272.25l-1.6-5.08Zm-1.59,21.28V278a7.76,7.76,0,0,0-.29-2.52,1,1,0,0,0-1-.73h-.47a1,1,0,0,0-1,.73,8.2,8.2,0,0,0-.27,2.52v10.46a8.17,8.17,0,0,0,.27,2.51,1,1,0,0,0,1,.74h.47a1,1,0,0,0,1-.74A7.73,7.73,0,0,0,730.12,288.45Z"/><path class="cls-6" d="M756.77,267.17q2.22,0,3.44,2.66a19.27,19.27,0,0,1,1.22,7.74v10.58a21.06,21.06,0,0,1-1.11,7.86,3.8,3.8,0,0,1-3.69,2.6h-4.46v8.27l1.6,5.08h-8V272.25l-1.6-5.08h7.35l0,5.56Q753.86,267.16,756.77,267.17Zm-1.65,21.28V279.4c0-2.16-.43-3.25-1.29-3.25-.42,0-.79.32-1.13,1a5.72,5.72,0,0,0-.56,2.42V291.7h1.71a1,1,0,0,0,1-.74A8.1,8.1,0,0,0,755.12,288.45Z"/><path class="cls-6" d="M784.75,286.32l-7.63-.06v2.19a7.8,7.8,0,0,0,.28,2.51,1,1,0,0,0,1,.74H779a.91.91,0,0,0,.9-.66,6.59,6.59,0,0,0,.25-2.18h6.17a27.2,27.2,0,0,1-.36,5.58,6.33,6.33,0,0,1-1.38,3.13,3.29,3.29,0,0,1-2.55,1h-5.59a4.65,4.65,0,0,1-4-2.07q-1.59-2.37-1.59-8.86V272.25l-1.6-5.08h12.68a3.61,3.61,0,0,1,3.52,2.37q1.05,2.35,1,7.8v5.2a8.32,8.32,0,0,1-.36,2.89A1.33,1.33,0,0,1,784.75,286.32ZM777.12,278v3.84h3V278a7.83,7.83,0,0,0-.28-2.52,1,1,0,0,0-1-.73h-.45a1,1,0,0,0-1,.73A7.83,7.83,0,0,0,777.12,278Z"/><path class="cls-6" d="M805.12,267.17h.39a2,2,0,0,1,.36,0l.29.06a.85.85,0,0,1,.24.09.76.76,0,0,0,.18.09l.15.06.12.06a.35.35,0,0,1,.07.09v12.17a2.66,2.66,0,0,0-1.64-.36,7.39,7.39,0,0,0-1.23.3,1.63,1.63,0,0,0-.85.8,6.43,6.43,0,0,0-.88,2.71c-.08.62-.13,1.17-.16,1.66s0,1.07,0,1.74v11.94h-6.34V272.25l-1.6-5.08h6.56V274a11.68,11.68,0,0,1,1.53-5A3.37,3.37,0,0,1,805.12,267.17Z"/></g></g></svg>