<svg xmlns="http://www.w3.org/2000/svg" viewBox="0 0 449.87 144.77"><defs><style>.cls-1{fill:#b1d5ef;stroke-width:3.96px;}.cls-1,.cls-2{stroke:#000;stroke-miterlimit:10;}.cls-2{fill:#892121;stroke-width:1.07px;}</style></defs><g id="Layer_2" data-name="Layer 2"><g id="Layer_2-2" data-name="Layer 2"><rect class="cls-1" x="1.98" y="1.98" width="445.92" height="140.82"/></g><g id="Layer_1-2" data-name="Layer 1"><path class="cls-2" d="M19.57,95.69v-49h5.17L36.5,71.49a154.58,154.58,0,0,1,6.59,15.92l.11-.08c-.43-6.54-.54-12.5-.54-20.13V46.7h4.46v49H42.33L30.68,70.83a175.69,175.69,0,0,1-6.86-16.35l-.17.07c.28,6.18.39,12.07.39,20.21V95.69Z"/><path class="cls-2" d="M75.33,95.69l-.39-4.43h-.16a9.3,9.3,0,0,1-8.06,5.23c-5.33,0-8.06-5-8.06-10.1,0-8.51,5.67-13.16,15.85-13.09v-.72c0-2.91-.6-8.14-6-8.14a10.83,10.83,0,0,0-6.86,2.61l-1.09-4.21a13.45,13.45,0,0,1,8.66-3.13c8.06,0,10,7.34,10,14.39V87.26a65.35,65.35,0,0,0,.43,8.43Zm-.71-18c-5.23-.15-11.16,1.09-11.16,7.92,0,4.14,2.06,6.11,4.52,6.11,3.43,0,5.6-2.91,6.37-5.89a8.86,8.86,0,0,0,.27-2Z"/><path class="cls-2" d="M89.48,92l11.93-20.72c1.14-1.89,2.23-3.56,3.43-5.45v-.15H90.57V60.51h20.09l0,4L98.85,84.93c-1.09,2-2.18,3.71-3.38,5.53v.14h15.41v5.09H89.48Z"/><path class="cls-2" d="M121.28,70c0-3.63-.06-6.61-.22-9.52h4.19l.22,5.67h.16c1.47-3.34,3.93-6.47,8.28-6.47,3.59,0,6.32,2.91,7.46,7.05h.11a14.2,14.2,0,0,1,2.94-4.58,7.62,7.62,0,0,1,5.83-2.47c3.48,0,8.65,3,8.65,15.27V95.69h-4.68V75.78c0-6.77-1.85-10.84-5.72-10.84-2.72,0-4.84,2.69-5.66,5.82a13.63,13.63,0,0,0-.38,3.2V95.69h-4.68V74.61c0-5.6-1.85-9.67-5.5-9.67-3,0-5.18,3.2-5.94,6.4a11.68,11.68,0,0,0-.38,3.13V95.69h-4.68Z"/><path class="cls-2" d="M194.24,86.1c0,3.63,0,6.83.22,9.59h-4.25L189.94,90h-.11c-1.25,2.84-4,6.54-8.71,6.54-4.14,0-9.1-3-9.1-15.41V60.51h4.8V80c0,6.69,1.52,11.2,5.88,11.2,3.21,0,5.44-3,6.31-5.82a12.26,12.26,0,0,0,.44-3.27V60.51h4.79Z"/><path class="cls-2" d="M207.69,44.08h4.79V95.69h-4.79Z"/><path class="cls-2" d="M248,46.7V67.2h17.75V46.7h4.79v49h-4.79v-23H248v23h-4.74v-49Z"/><path class="cls-2" d="M298.67,95.69l-.38-4.43h-.16a9.32,9.32,0,0,1-8.06,5.23c-5.34,0-8.06-5-8.06-10.1,0-8.51,5.66-13.16,15.84-13.09v-.72c0-2.91-.6-8.14-6-8.14A10.83,10.83,0,0,0,285,67.05l-1.09-4.21a13.45,13.45,0,0,1,8.66-3.13c8.06,0,10,7.34,10,14.39V87.26a65.22,65.22,0,0,0,.44,8.43Zm-.71-18c-5.23-.15-11.16,1.09-11.16,7.92,0,4.14,2.07,6.11,4.52,6.11,3.43,0,5.61-2.91,6.37-5.89a8.86,8.86,0,0,0,.27-2Z"/><path class="cls-2" d="M315.17,89.15a10.43,10.43,0,0,0,6.31,2.54c3.49,0,5.12-2.32,5.12-5.23s-1.36-4.72-4.9-6.47c-4.74-2.25-7-5.74-7-10,0-5.67,3.43-10.32,9.09-10.32a10.72,10.72,0,0,1,6.48,2.18l-1.19,4.65a8.54,8.54,0,0,0-5.39-2c-2.84,0-4.42,2.18-4.42,4.8,0,2.9,1.58,4.21,5,6,4.58,2.32,6.92,5.38,6.92,10.61,0,6.18-3.59,10.54-9.86,10.54A12.18,12.18,0,0,1,314,94Z"/><path class="cls-2" d="M342.23,89.15a10.43,10.43,0,0,0,6.31,2.54c3.49,0,5.12-2.32,5.12-5.23s-1.36-4.72-4.9-6.47c-4.74-2.25-7-5.74-7-10,0-5.67,3.43-10.32,9.09-10.32a10.72,10.72,0,0,1,6.48,2.18l-1.19,4.65a8.54,8.54,0,0,0-5.39-2c-2.84,0-4.42,2.18-4.42,4.8,0,2.9,1.58,4.21,5,6,4.58,2.32,6.92,5.38,6.92,10.61,0,6.18-3.59,10.54-9.86,10.54A12.18,12.18,0,0,1,341,94Z"/><path class="cls-2" d="M384.53,95.69l-.38-4.43H384a9.3,9.3,0,0,1-8.06,5.23c-5.34,0-8.06-5-8.06-10.1,0-8.51,5.66-13.16,15.85-13.09v-.72c0-2.91-.6-8.14-6-8.14a10.83,10.83,0,0,0-6.86,2.61l-1.09-4.21a13.43,13.43,0,0,1,8.66-3.13c8.05,0,10,7.34,10,14.39V87.26a65.22,65.22,0,0,0,.44,8.43Zm-.7-18c-5.23-.15-11.17,1.09-11.17,7.92,0,4.14,2.07,6.11,4.52,6.11,3.43,0,5.61-2.91,6.37-5.89a8.36,8.36,0,0,0,.28-2Z"/><path class="cls-2" d="M401.68,70c0-3.63-.05-6.61-.21-9.52h4.24l.28,5.81h.1c1.31-3.34,4.36-6.61,8.72-6.61,3.64,0,9.31,2.91,9.31,15v21h-4.79V75.41c0-5.67-1.58-10.39-6.1-10.39-3.16,0-5.61,3-6.43,6.54a12,12,0,0,0-.32,3V95.69h-4.8Z"/></g></g></svg>